<svg width="8" height="10" fill="none" xmlns="http://www.w3.org/2000/svg"><g opacity=".4" fill-rule="evenodd" clip-rule="evenodd"><path d="M3.397 9.746a.846.846 0 00.606.254c.23 0 .445-.09.606-.254l2.655-2.759a.583.583 0 000-.817.566.566 0 00-.808 0L4.003 8.725 1.55 6.17a.566.566 0 00-.808 0 .583.583 0 000 .817l2.655 2.76z" fill="red"/><path d="M3.397 9.746a.846.846 0 00.606.254c.23 0 .445-.09.606-.254l2.655-2.759a.583.583 0 000-.817.566.566 0 00-.808 0L4.003 8.725 1.55 6.17a.566.566 0 00-.808 0 .583.583 0 000 .817l2.655 2.76z" fill="#0B1739"/></g><path fill-rule="evenodd" clip-rule="evenodd" d="M4.608.253A.846.846 0 004.002 0c-.23 0-.445.09-.606.253L.741 3.013a.583.583 0 000 .817.566.566 0 00.808 0l2.453-2.555L6.455 3.83a.566.566 0 00.808 0 .583.583 0 000-.817L4.608.253z" fill="#3EB57C"/></svg>