<svg width="7" height="10" fill="none" xmlns="http://www.w3.org/2000/svg"><path fill-rule="evenodd" clip-rule="evenodd" d="M2.823 9.746A.846.846 0 003.43 10c.229 0 .444-.09.605-.254L6.69 6.987a.583.583 0 000-.817.566.566 0 00-.808 0L3.43 8.725.976 6.17a.566.566 0 00-.808 0 .583.583 0 000 .817l2.655 2.76z" fill="#3EB57C"/><path fill-rule="evenodd" clip-rule="evenodd" d="M4.035.253A.846.846 0 003.428 0a.845.845 0 00-.605.253L.168 3.013a.583.583 0 000 .817.566.566 0 00.807 0l2.453-2.555L5.882 3.83a.566.566 0 00.808 0 .583.583 0 000-.817L4.035.253z" fill="#E2E2E2"/></svg>