<svg width="8" height="10" fill="none" xmlns="http://www.w3.org/2000/svg"><g opacity=".4" fill-rule="evenodd" clip-rule="evenodd"><path d="M3.539 9.746a.846.846 0 00.606.254c.23 0 .445-.09.606-.254l2.655-2.759a.583.583 0 000-.817.566.566 0 00-.808 0L4.145 8.725 1.692 6.17a.566.566 0 00-.808 0 .583.583 0 000 .817l2.655 2.76z" fill="red"/><path d="M3.539 9.746a.846.846 0 00.606.254c.23 0 .445-.09.606-.254l2.655-2.759a.583.583 0 000-.817.566.566 0 00-.808 0L4.145 8.725 1.692 6.17a.566.566 0 00-.808 0 .583.583 0 000 .817l2.655 2.76z" fill="#0B1739"/></g><g opacity=".4" fill-rule="evenodd" clip-rule="evenodd"><path d="M4.75.253A.846.846 0 004.144 0c-.23 0-.445.09-.606.253L.883 3.013a.583.583 0 000 .817.566.566 0 00.808 0l2.453-2.555L6.597 3.83a.566.566 0 00.808 0 .583.583 0 000-.817L4.75.253z" fill="red"/><path d="M4.75.253A.846.846 0 004.144 0c-.23 0-.445.09-.606.253L.883 3.013a.583.583 0 000 .817.566.566 0 00.808 0l2.453-2.555L6.597 3.83a.566.566 0 00.808 0 .583.583 0 000-.817L4.75.253z" fill="#0B1739"/></g></svg>