<svg width="66" height="64" fill="none" xmlns="http://www.w3.org/2000/svg"><path d="M61.517 12.21v-1.117h1.925V2.577H56.05v8.516h1.117v1.117h-6.904v-1.117h4.67V2.577H44.772v8.516h1.652v1.117H44.77v8.493h-1.117v-.82H29.404v-1.118h14.252V2.577H23.387v16.177h2.745v1.117H19.8v-3.044h2.473V2.577H2.506v16.177h14.308v1.117h-.843v.82h-1.117v-.82H2.518v10.431h12.349v-5.768h1.116v6.886H2.518v19.768h20.836V28.41h-3.27v-1.117h23.57v-2.748h1.117v2.748h1.116v1.117H24.47v22.778h26.908v2.508H41.217v6.829h17.84v-6.829h-3.84v-2.508h8.237V28.41H51.64v-1.117h11.803V16.86h2.506v36.835h-6.346v7.377H40.658v-7.376H0V.068h65.949v12.689h-2.506v-.547h-1.926z" fill="#29313C"/><path fill-rule="evenodd" clip-rule="evenodd" d="M63.545 28.398h-3.292v9.338h.137v.136h3.018v-.136h.137v-9.338zm-.137 9.338H60.39v-9.2h3.02v9.2zm0 3.157H60.39v.137h-.136v4.429h3.292V41.03h-.137v-.137zm0 .137H60.39v4.292h3.02V41.03zm-1.241-.969c0-.137.057-.25.136-.342a.464.464 0 01.342-.137c.137 0 .25.057.342.137a.464.464 0 01.137.342.512.512 0 01-.137.342.463.463 0 01-.342.137.513.513 0 01-.342-.137.514.514 0 01-.136-.342zm.136 0a.36.36 0 01.103-.24.31.31 0 01.24-.102c.09 0 .181.046.238.103a.31.31 0 01.103.24.355.355 0 01-.103.239.31.31 0 01-.239.102.355.355 0 01-.24-.102.31.31 0 01-.102-.24zm-1.629 0c0-.137.057-.25.137-.342a.463.463 0 01.342-.137c.136 0 .25.057.342.137a.464.464 0 01.136.342.516.516 0 01-.136.342.464.464 0 01-.342.137.513.513 0 01-.342-.137.514.514 0 01-.137-.342zm.137 0c0-.091.045-.182.102-.24a.31.31 0 01.24-.102c.09 0 .182.046.239.103a.31.31 0 01.102.24.356.356 0 01-.102.239.31.31 0 01-.24.102.355.355 0 01-.239-.102.31.31 0 01-.102-.24zm1.356-1.368c0-.137.057-.25.136-.342a.464.464 0 01.342-.137c.137 0 .25.057.342.137a.464.464 0 01.137.342c0 .137-.057.25-.137.342a.463.463 0 01-.342.137.513.513 0 01-.342-.137.514.514 0 01-.136-.342zm.136 0a.36.36 0 01.103-.24.31.31 0 01.24-.102c.09 0 .181.046.238.103a.31.31 0 01.103.24.355.355 0 01-.103.238.31.31 0 01-.239.103.355.355 0 01-.24-.102.31.31 0 01-.102-.24zm-1.629 0c0-.137.057-.25.137-.342a.463.463 0 01.342-.137c.136 0 .25.057.342.137a.464.464 0 01.136.342c0 .137-.057.25-.136.342a.464.464 0 01-.342.137.513.513 0 01-.342-.137.514.514 0 01-.137-.342zm.137 0c0-.091.045-.182.102-.24a.31.31 0 01.24-.102c.09 0 .182.046.239.103a.31.31 0 01.102.24.356.356 0 01-.102.238.31.31 0 01-.24.103.355.355 0 01-.239-.102.31.31 0 01-.102-.24zM54.935 6.122h-2.563c-.273 0-.535-.114-.717-.297a1.007 1.007 0 01-.297-.718c0-.274.114-.536.297-.718.182-.183.432-.297.717-.297h2.563v2.03zm-3.19-1.653a.905.905 0 000 1.276c.16.16.388.263.639.263h2.449V4.206h-2.45a.904.904 0 00-.637.263zm2.063 1.539h.114V4.206h-.114v1.802zm1.127.894h-.934c-.467 0-.888.183-1.196.49a1.61 1.61 0 00-.501 1.163c0 .456.194.867.501 1.163.308.296.73.479 1.196.479h.934V6.902zm-.934 3.158c-.432 0-.82-.17-1.105-.444a1.479 1.479 0 01-.455-1.084c0-.421.17-.798.455-1.071a1.587 1.587 0 011.105-.445h.81v3.044H54zm.217-.216h-.262c-.353 0-.672-.137-.912-.365a1.243 1.243 0 01-.375-.878V8.51c0-.342.148-.65.375-.878.228-.228.547-.365.912-.365h.262v2.577zM52.805 8.51c0-.308.137-.582.342-.787.205-.205.49-.33.809-.33h.125v2.325h-.125c-.308 0-.604-.125-.809-.33a1.05 1.05 0 01-.342-.787V8.51zm1.063.058c0 .114-.08.195-.189.195a.2.2 0 01-.198-.195c0-.102.09-.186.198-.186.11 0 .189.073.189.186zm-.189.106c-.061 0-.107-.04-.107-.106 0-.065.058-.104.107-.104.05 0 .108.037.108.104s-.046.106-.108.106zM7.735 30.314v-2.565c0-.274.114-.536.296-.718.183-.183.433-.297.718-.297a1.007 1.007 0 011.014 1.015v2.565H7.735zm1.652-3.192a.903.903 0 00-1.538.638v1.425h1.8V27.76a.905.905 0 00-.262-.638zm.262 2.177h-1.8v.912h1.8V29.3zM14 30.314v-.935c0-.468-.181-.89-.489-1.197a1.609 1.609 0 00-1.162-.502c-.456 0-.866.194-1.162.502a1.72 1.72 0 00-.478 1.197v.935H14zm-3.155-.935c0-.433.171-.82.445-1.106a1.475 1.475 0 011.082-.456c.421 0 .797.171 1.07.456.274.285.445.673.445 1.106v.81h-3.042v-.81zm.217.217v-.263c0-.353.136-.672.364-.912a1.24 1.24 0 01.877-.376h.092c.341 0 .649.148.877.376.228.228.364.547.364.912v.263h-2.574zm1.333-1.414c.307 0 .58.137.786.342.205.205.33.49.33.81v.125h-2.324v-.126c0-.307.125-.604.33-.81a1.05 1.05 0 01.787-.341h.09zm-.059 1.063c-.114 0-.194-.08-.194-.188a.2.2 0 01.194-.2c.102 0 .187.09.187.2 0 .109-.073.188-.187.188zm-.105-.188c0-.062.04-.108.105-.108s.104.059.104.108-.037.107-.104.107-.105-.046-.105-.107zM5.81 19.882H2.518v7.092H5.81v-7.092zm-.103.092v6.908H2.61v-6.908h3.098zm-2.836 5.438v-3.945c0-.353.136-.638.353-.844.24-.216.558-.33.923-.33.364 0 .695.114.922.33.217.206.354.49.354.844v3.945c0 .353-.137.638-.354.843-.239.217-.558.33-.922.33-.365 0-.695-.113-.923-.33a1.132 1.132 0 01-.353-.843zm2.472 0c0 .33-.125.592-.33.775-.217.194-.525.296-.866.308-.342 0-.65-.114-.866-.308a1.02 1.02 0 01-.33-.775v-3.945c0-.33.125-.593.33-.775.216-.205.524-.308.866-.308.341 0 .65.114.866.308.205.194.33.444.33.775v3.945zm-1.203.449c-.113 0-.194-.08-.194-.189 0-.108.092-.199.194-.199.103 0 .187.09.187.199 0 .109-.073.189-.187.189zm-.105-.189c0-.062.04-.108.105-.108s.104.06.104.108c0 .049-.037.108-.104.108s-.105-.047-.105-.108z" fill="#29313C"/><path d="M46.48 51.245h4.83v2.394h-4.83v-2.394z" fill="#fff"/><path fill-rule="evenodd" clip-rule="evenodd" d="M46.411 53.696v-2.508h4.944v2.508h-4.944zm.114-.114h4.717v-2.28h-4.717v2.28z" fill="#171924"/><path fill="#171924" d="M46.423 51.94h4.944v.137h-4.944z"/><path d="M26.726 51.245h8.122v2.394h-8.122v-2.394z" fill="#fff"/><path fill-rule="evenodd" clip-rule="evenodd" d="M26.657 53.696v-2.508h8.237v2.508h-8.236zm.114-.114h8.009v-2.28h-8.009v2.28z" fill="#171924"/><path fill="#171924" d="M26.669 51.94h8.236v.137h-8.236z"/><path d="M7.234 51.245h8.123v2.394H7.234v-2.394z" fill="#fff"/><path fill-rule="evenodd" clip-rule="evenodd" d="M7.177 53.696v-2.508h8.237v2.508H7.177zm.114-.114H15.3v-2.28H7.29v2.28z" fill="#171924"/><path fill="#171924" d="M7.177 51.94h8.236v.137H7.177z"/><path d="M7.234.125h8.123V2.52H7.234V.125z" fill="#fff"/><path fill-rule="evenodd" clip-rule="evenodd" d="M7.177 2.577V.068h8.237v2.509H7.177zm.114-.114H15.3V.183H7.29v2.28z" fill="#171924"/><path fill="#171924" d="M7.177 1.687h8.236v.137H7.177z"/><path d="M26.726.125h8.122V2.52h-8.122V.125z" fill="#fff"/><path fill-rule="evenodd" clip-rule="evenodd" d="M26.657 2.577V.068h8.237v2.509h-8.236zm.114-.114h8.009V.183h-8.009v2.28z" fill="#171924"/><path fill="#171924" d="M26.669 1.687h8.236v.137h-8.236z"/><path d="M47.3.125h5.924V2.52H47.3V.125z" fill="#fff"/><path fill-rule="evenodd" clip-rule="evenodd" d="M47.243 2.577V.068h6.038v2.509h-6.038zm.114-.114h5.81V.183h-5.81v2.28z" fill="#171924"/><path fill="#171924" d="M47.243 1.687h6.038v.137h-6.038z"/><path opacity=".2" d="M8.271 58.416c.953 1.45.4 3.33-1.225 4.17-1.622.852-3.722.356-4.663-1.1-.956-1.458-.399-3.325 1.23-4.167 1.621-.852 3.72-.358 4.658 1.096z" fill="#0B1739" fill-opacity=".2"/><path fill-rule="evenodd" clip-rule="evenodd" d="M5.698 60.614l-2.754.446 1.82-1.876 2.746-.456-1.812 1.886zm-.725-1.106l-1.316 1.206 1.846-.42-.53-.786z" fill="red"/><path fill-rule="evenodd" clip-rule="evenodd" d="M5.698 60.614l-2.754.446 1.82-1.876 2.746-.456-1.812 1.886zm-.725-1.106l-1.316 1.206 1.846-.42-.53-.786z" fill="#0B1739"/><path fill-rule="evenodd" clip-rule="evenodd" d="M.722 63.041a.843.843 0 01-.37-.08.633.633 0 01-.258-.218.553.553 0 01-.094-.315.55.55 0 01.095-.315.64.64 0 01.26-.22.842.842 0 01.369-.078.86.86 0 01.303.05.619.619 0 01.231.149l-.162.134a.503.503 0 00-.36-.14.56.56 0 00-.25.054.418.418 0 00-.171.15.39.39 0 00-.062.216c0 .08.02.153.062.216a.417.417 0 00.171.15.56.56 0 00.25.053.5.5 0 00.36-.142l.162.137a.62.62 0 01-.232.148.868.868 0 01-.304.051z" fill="red"/><path fill-rule="evenodd" clip-rule="evenodd" d="M.722 63.041a.843.843 0 01-.37-.08.633.633 0 01-.258-.218.553.553 0 01-.094-.315.55.55 0 01.095-.315.64.64 0 01.26-.22.842.842 0 01.369-.078.86.86 0 01.303.05.619.619 0 01.231.149l-.162.134a.503.503 0 00-.36-.14.56.56 0 00-.25.054.418.418 0 00-.171.15.39.39 0 00-.062.216c0 .08.02.153.062.216a.417.417 0 00.171.15.56.56 0 00.25.053.5.5 0 00.36-.142l.162.137a.62.62 0 01-.232.148.868.868 0 01-.304.051z" fill="#0B1739"/><path fill-rule="evenodd" clip-rule="evenodd" d="M10.43 56.903c.133 0 .252.027.358.08a.62.62 0 01.25.218c.06.093.09.199.09.316 0 .116-.03.221-.09.315a.62.62 0 01-.25.219.792.792 0 01-.358.079.806.806 0 01-.33-.067.64.64 0 01-.246-.185.562.562 0 01-.119-.271h-.212v.506h-.247V56.92h.247v.49h.216a.563.563 0 01.123-.264.64.64 0 01.243-.179.81.81 0 01.325-.064zm0 1.033c.084 0 .16-.018.228-.053a.395.395 0 00.218-.367.396.396 0 00-.218-.366.489.489 0 00-.228-.053.483.483 0 00-.227.053.404.404 0 00-.219.367.407.407 0 00.22.366.483.483 0 00.226.053z" fill="red"/><path fill-rule="evenodd" clip-rule="evenodd" d="M10.43 56.903c.133 0 .252.027.358.08a.62.62 0 01.25.218c.06.093.09.199.09.316 0 .116-.03.221-.09.315a.62.62 0 01-.25.219.792.792 0 01-.358.079.806.806 0 01-.33-.067.64.64 0 01-.246-.185.562.562 0 01-.119-.271h-.212v.506h-.247V56.92h.247v.49h.216a.563.563 0 01.123-.264.64.64 0 01.243-.179.81.81 0 01.325-.064zm0 1.033c.084 0 .16-.018.228-.053a.395.395 0 00.218-.367.396.396 0 00-.218-.366.489.489 0 00-.228-.053.483.483 0 00-.227.053.404.404 0 00-.219.367.407.407 0 00.22.366.483.483 0 00.226.053z" fill="#0B1739"/><path d="M53.312 57.814h.903v.173l-.508 1.233h-.205l.512-1.233h-.702v-.173zm1.129 1.195h.204l-.158.512h-.143l.097-.512zm.975.227a.536.536 0 01-.2-.036.368.368 0 01-.151-.115.582.582 0 01-.097-.205 1.183 1.183 0 01-.034-.305v-.116c0-.118.012-.218.034-.301a.56.56 0 01.097-.205.377.377 0 01.152-.117.505.505 0 01.199-.038.52.52 0 01.199.036c.06.024.111.063.152.117a.56.56 0 01.097.205c.023.083.034.184.034.303v.116c0 .118-.011.22-.034.303a.56.56 0 01-.099.205.381.381 0 01-.152.117.515.515 0 01-.197.036zm0-.18a.302.302 0 00.119-.023.211.211 0 00.09-.078.455.455 0 00.056-.149c.014-.061.02-.138.02-.23v-.117a1.08 1.08 0 00-.02-.23.425.425 0 00-.058-.148.194.194 0 00-.09-.078.274.274 0 00-.117-.024.293.293 0 00-.12.024.197.197 0 00-.089.078.43.43 0 00-.056.147 1.11 1.11 0 00-.02.23v.117c0 .093.007.17.02.231.013.06.032.11.056.147a.223.223 0 00.09.08.311.311 0 00.119.022zm.681-1.039l.293-.203h.189v1.406h-.189v-1.197l-.293.199v-.205z" fill="#29313C"/><path d="M34.739 41.692v2.81h-.398v-2.46h-.634v-.35h1.032zm1.542 0v2.81h-.398v-2.46h-.635v-.35h1.033zm2.389 1.337c.16.062.283.15.37.265a.673.673 0 01.128.414.733.733 0 01-.137.442.867.867 0 01-.39.285 1.6 1.6 0 01-.594.1c-.225 0-.422-.033-.59-.1a.87.87 0 01-.386-.285.734.734 0 01-.136-.442.69.69 0 01.124-.414.805.805 0 01.37-.265.703.703 0 01-.294-.245.642.642 0 01-.1-.361c0-.156.042-.29.125-.406a.81.81 0 01.357-.265c.153-.062.33-.092.53-.092.204 0 .382.03.534.092.155.061.275.15.358.265a.66.66 0 01.128.406.637.637 0 01-.104.361.704.704 0 01-.293.245zm-.623-1.044c-.19 0-.34.041-.45.124a.386.386 0 00-.164.33c0 .139.053.249.16.329.11.08.261.12.454.12.196 0 .348-.04.458-.12a.383.383 0 00.169-.33.38.38 0 00-.173-.329c-.112-.083-.264-.124-.454-.124zm0 2.225c.222 0 .398-.046.526-.137a.444.444 0 00.193-.377.42.42 0 00-.193-.366c-.128-.09-.304-.136-.526-.136-.222 0-.396.045-.522.136a.423.423 0 00-.189.366c0 .158.063.284.189.377.126.091.3.137.522.137zm1.852-.233c.075 0 .136.027.184.08a.261.261 0 01.077.193c0 .04-.005.079-.016.116a1.7 1.7 0 01-.052.173l-.19.558h-.252l.148-.598a.267.267 0 01-.124-.093.281.281 0 01-.044-.156c0-.08.025-.146.076-.197a.262.262 0 01.193-.076zm1.516-2.285v2.81h-.397v-2.46h-.635v-.35h1.032zm1.542 0v2.81h-.398v-2.46h-.634v-.35h1.032z" fill="red"/><path d="M34.739 41.692v2.81h-.398v-2.46h-.634v-.35h1.032zm1.542 0v2.81h-.398v-2.46h-.635v-.35h1.033zm2.389 1.337c.16.062.283.15.37.265a.673.673 0 01.128.414.733.733 0 01-.137.442.867.867 0 01-.39.285 1.6 1.6 0 01-.594.1c-.225 0-.422-.033-.59-.1a.87.87 0 01-.386-.285.734.734 0 01-.136-.442.69.69 0 01.124-.414.805.805 0 01.37-.265.703.703 0 01-.294-.245.642.642 0 01-.1-.361c0-.156.042-.29.125-.406a.81.81 0 01.357-.265c.153-.062.33-.092.53-.092.204 0 .382.03.534.092.155.061.275.15.358.265a.66.66 0 01.128.406.637.637 0 01-.104.361.704.704 0 01-.293.245zm-.623-1.044c-.19 0-.34.041-.45.124a.386.386 0 00-.164.33c0 .139.053.249.16.329.11.08.261.12.454.12.196 0 .348-.04.458-.12a.383.383 0 00.169-.33.38.38 0 00-.173-.329c-.112-.083-.264-.124-.454-.124zm0 2.225c.222 0 .398-.046.526-.137a.444.444 0 00.193-.377.42.42 0 00-.193-.366c-.128-.09-.304-.136-.526-.136-.222 0-.396.045-.522.136a.423.423 0 00-.189.366c0 .158.063.284.189.377.126.091.3.137.522.137zm1.852-.233c.075 0 .136.027.184.08a.261.261 0 01.077.193c0 .04-.005.079-.016.116a1.7 1.7 0 01-.052.173l-.19.558h-.252l.148-.598a.267.267 0 01-.124-.093.281.281 0 01-.044-.156c0-.08.025-.146.076-.197a.262.262 0 01.193-.076zm1.516-2.285v2.81h-.397v-2.46h-.635v-.35h1.032zm1.542 0v2.81h-.398v-2.46h-.634v-.35h1.032z" fill="#0B1739"/><path d="M35.43 40.044c-.394 0-.7-.105-.918-.316-.218-.214-.33-.517-.336-.909h.632c.007.231.062.4.166.507.104.104.256.156.457.156.207 0 .363-.047.467-.14a.504.504 0 00.155-.387.466.466 0 00-.15-.357c-.097-.093-.243-.14-.437-.14h-.462v-.532h.462a.53.53 0 00.376-.126.424.424 0 00.136-.326.444.444 0 00-.14-.341c-.091-.088-.227-.131-.407-.131-.335 0-.517.187-.547.562h-.633c.007-.351.112-.626.316-.823.208-.2.496-.301.864-.301.194 0 .364.025.512.075a.99.99 0 01.366.2.82.82 0 01.226.317c.05.12.075.254.075.402 0 .16-.035.306-.105.436a.784.784 0 01-.326.317.867.867 0 01.507.813c0 .154-.027.296-.08.427a.9.9 0 01-.242.331c-.103.09-.234.16-.391.21a1.73 1.73 0 01-.542.076zm2.642-1.094h-.251v1.049h-.583v-2.51h.583v.949h.25l.603-.95h.673l-.793 1.186.893 1.325h-.703l-.672-1.05z" fill="red"/><path d="M35.43 40.044c-.394 0-.7-.105-.918-.316-.218-.214-.33-.517-.336-.909h.632c.007.231.062.4.166.507.104.104.256.156.457.156.207 0 .363-.047.467-.14a.504.504 0 00.155-.387.466.466 0 00-.15-.357c-.097-.093-.243-.14-.437-.14h-.462v-.532h.462a.53.53 0 00.376-.126.424.424 0 00.136-.326.444.444 0 00-.14-.341c-.091-.088-.227-.131-.407-.131-.335 0-.517.187-.547.562h-.633c.007-.351.112-.626.316-.823.208-.2.496-.301.864-.301.194 0 .364.025.512.075a.99.99 0 01.366.2.82.82 0 01.226.317c.05.12.075.254.075.402 0 .16-.035.306-.105.436a.784.784 0 01-.326.317.867.867 0 01.507.813c0 .154-.027.296-.08.427a.9.9 0 01-.242.331c-.103.09-.234.16-.391.21a1.73 1.73 0 01-.542.076zm2.642-1.094h-.251v1.049h-.583v-2.51h.583v.949h.25l.603-.95h.673l-.793 1.186.893 1.325h-.703l-.672-1.05z" fill="#0B1739"/><path fill-rule="evenodd" clip-rule="evenodd" d="M63.482 25.067H51.687v2.254h11.795v-2.254zm-11.663 2.122v-1.99h11.53v1.99H51.82z" fill="#29313C"/><path d="M52.88 26.26v-.132h9.542v.132H52.88z" fill="#29313C"/><path d="M53.277 25.597h.133v1.326h-.133v-1.326zm.53 0h.133v1.326h-.133v-1.326zm.663 0h.132v1.326h-.132v-1.326zm1.59 0h.133v1.326h-.133v-1.326zm.928 0h.133v1.326h-.133v-1.326zm2.916 0h.132v1.326h-.132v-1.326zm-2.386 0h.133v1.326h-.133v-1.326zm2.916 0h.132v1.326h-.132v-1.326zm-2.254 0h.133v1.326h-.132v-1.326zm2.916 0h.133v1.326h-.133v-1.326zm.663 0h.133v1.326h-.133v-1.326zm-6.575.086l.128-.034.35 1.322-.128.033-.35-1.321zm4.189 0l-.128-.034-.35 1.322.128.033.35-1.321z" fill="#29313C"/><path fill-rule="evenodd" clip-rule="evenodd" d="M21.275 28.228V40.03h2.253V28.229h-2.253zm2.12.132V39.9h-1.988V28.36h1.988z" fill="#29313C"/><path d="M22.468 38.838h-.133v-9.55h.133v9.55z" fill="#29313C"/><path d="M21.805 38.44v-.133h1.325v.133h-1.325zm0-.53v-.133h1.325v.133h-1.325zm0-.664v-.132h1.325v.132h-1.325zm0-1.591v-.133h1.325v.133h-1.325zm0-.929v-.132h1.325v.132h-1.325zm0-2.917v-.133h1.325v.133h-1.325zm0 2.387v-.133h1.325v.133h-1.325zm0-2.918v-.133h1.325v.133h-1.325zm0 2.255V33.4h1.325v.133h-1.325zm0-2.918v-.133h1.325v.133h-1.325zm0-.663v-.133h1.325v.133h-1.325zm.085 6.58l-.033-.129 1.32-.35.034.129-1.32.35zm1.287-3.714l.034-.128-1.32-.35-.034.128 1.32.35z" fill="#29313C"/><path fill-rule="evenodd" clip-rule="evenodd" d="M23.325 11.671v7.162h2.253v-7.162h-2.253zm2.12 7.03h-1.987v-6.897h1.988V18.7z" fill="#29313C"/><path d="M24.518 18.303h-.132v-5.836h.132v5.836z" fill="#29313C"/><path d="M23.855 17.905v-.133h1.326v.133h-1.326zm0-.531v-.133h1.326v.133h-1.326zm0-.663v-.133h1.326v.133h-1.326zm0-1.591v-.133h1.326v.133h-1.326zm0-.929v-.133h1.326v.133h-1.326zm0-.531v-.132h1.326v.133h-1.326zm0-.662v-.133h1.326v.133h-1.326zm.085 2.998l-.033-.128 1.32-.35.035.128-1.321.35z" fill="#29313C"/><path fill-rule="evenodd" clip-rule="evenodd" d="M2.518 18.833h7.157v-2.255H2.518v2.255zm7.024-2.122v1.99H2.651v-1.99h6.891z" fill="#29313C"/><path d="M9.145 17.64v.132H3.313v-.133h5.832z" fill="#29313C"/><path d="M8.747 18.303h-.133v-1.327h.133v1.327zm-.53 0h-.133v-1.327h.133v1.327zm-.663 0h-.132v-1.327h.132v1.327zm-1.59 0H5.83v-1.327h.133v1.327zm-.928 0h-.132v-1.327h.132v1.327zm-.53 0h-.132v-1.327h.132v1.327zm-.663 0h-.132v-1.327h.132v1.327zm2.997-.086l-.128.034-.35-1.322.128-.034.35 1.322z" fill="#29313C"/><path fill-rule="evenodd" clip-rule="evenodd" d="M55.928 4.775h7.686V2.52h-7.686v2.255zm7.554-2.122v1.989H56.06v-1.99h7.422z" fill="#29313C"/><path d="M62.554 3.58v.134h-5.831V3.58h5.831z" fill="#29313C"/><path d="M62.157 4.244h-.133V2.918h.133v1.326zm-.53 0h-.133V2.918h.133v1.326zm-.663 0h-.133V2.918h.133v1.326zm-1.591 0h-.132V2.918h.133v1.326zm-.927 0h-.133V2.918h.133v1.326zm-.53 0h-.133V2.918h.133v1.326zm-.663 0h-.133V2.918h.133v1.326zm2.997-.085l-.128.034-.35-1.322.128-.034.35 1.322z" fill="#29313C"/><path fill-rule="evenodd" clip-rule="evenodd" d="M63.75 11.089V4.642h-2.253v6.447h2.253zm-2.12-.133V4.775h1.988v6.181H61.63z" fill="#29313C"/><path d="M62.557 5.52h.133v4.913h-.133V5.52z" fill="#29313C"/><path d="M63.22 5.854v.133h-1.325v-.133h1.325zm0 .445v.132h-1.325V6.3h1.325zm0 .555v.133h-1.325v-.133h1.325zm0 1.334v.133h-1.325v-.133h1.325zm0 .778V9.1h-1.325v-.133h1.325zm0 .444v.134h-1.325V9.41h1.325zm0 .557v.132h-1.325v-.132h1.325zm-.082-2.514l.029.13-1.323.293-.028-.13 1.322-.293z" fill="#29313C"/><path fill-rule="evenodd" clip-rule="evenodd" d="M55.795 12.202h-3.578v1.857h3.578v-1.857zm-3.446 1.724v-1.592h3.314v1.592h-3.314zm-7.686 14.987h-9.808v1.724h9.808v-1.724zm-.133 1.591h-9.542v-1.459h9.542v1.46z" fill="#29313C"/><path fill-rule="evenodd" clip-rule="evenodd" d="M43.735 29.443h-8.084v.663h8.084v-.663zm-.133.53h-7.819v-.397h7.82v.398zm-12.426-.525l-3.27 1.457 1.24 2.786 3.27-1.457-1.24-2.786zm1.064 2.719l-3.027 1.349-1.131-2.544 3.027-1.35 1.131 2.545z" fill="#29313C"/><path fill-rule="evenodd" clip-rule="evenodd" d="M31.176 29.448l-3.27 1.457 1.24 2.786 3.27-1.457-1.24-2.786zm1.064 2.719l-3.027 1.349-1.131-2.544 3.027-1.35 1.131 2.545z" fill="#29313C"/><path fill-rule="evenodd" clip-rule="evenodd" d="M31.781 29.178l-4.48 1.996 1.24 2.787 4.48-1.997-1.24-2.786zm1.065 2.719l-4.238 1.889-1.132-2.544 4.238-1.889 1.132 2.544z" fill="#29313C"/><path fill-rule="evenodd" clip-rule="evenodd" d="M31.176 29.448l-3.27 1.456.432.97 3.269-1.457-.431-.97zm.256.902l-3.027 1.348-.324-.726 3.027-1.35.324.728zm4.086 19.783h3.578v-3.05h-3.578v3.05zm3.446-2.918V50H35.65v-2.785h3.313z" fill="#29313C"/><path fill-rule="evenodd" clip-rule="evenodd" d="M35.518 50.133h3.578v-3.05h-3.578v3.05zm3.446-2.918V50H35.65v-2.785h3.313z" fill="#29313C"/><path fill-rule="evenodd" clip-rule="evenodd" d="M34.855 50.133h4.904v-3.05h-4.904v3.05zm4.772-2.918V50h-4.639v-2.785h4.639z" fill="#29313C"/><path fill-rule="evenodd" clip-rule="evenodd" d="M35.518 50.133h3.578v-1.06h-3.578v1.06zm3.446-.928V50H35.65v-.796h3.313zm-12.723-5.703v3.58h3.048v-3.58h-3.048zm2.916 3.448h-2.784v-3.316h2.784v3.316z" fill="#29313C"/><path fill-rule="evenodd" clip-rule="evenodd" d="M26.241 40.053v3.581h3.048v-3.58h-3.048zm2.916 3.449h-2.784v-3.316h2.784v3.316z" fill="#29313C"/><path fill-rule="evenodd" clip-rule="evenodd" d="M26.241 36.605v3.581h3.048v-3.58h-3.048zm2.916 3.448h-2.784v-3.315h2.784v3.315z" fill="#29313C"/><path fill-rule="evenodd" clip-rule="evenodd" d="M26.241 36.605v10.478h3.048V36.605h-3.048zm2.916 10.345h-2.784V36.738h2.784V46.95z" fill="#29313C"/><path fill-rule="evenodd" clip-rule="evenodd" d="M26.241 35.942v11.804h3.048V35.942h-3.048zm2.916 11.671h-2.784V36.075h2.784v11.538z" fill="#29313C"/><path fill-rule="evenodd" clip-rule="evenodd" d="M26.241 43.502v3.58h1.06v-3.58h-1.06zm.928 3.448h-.796v-3.316h.796v3.316z" fill="#29313C"/><path fill-rule="evenodd" clip-rule="evenodd" d="M26.241 40.053v3.581h1.06v-3.58h-1.06zm.928 3.449h-.796v-3.316h.796v3.316z" fill="#29313C"/><path fill-rule="evenodd" clip-rule="evenodd" d="M26.241 36.605v3.581h1.06v-3.58h-1.06zm.928 3.448h-.796v-3.315h.796v3.315zm21.536 4.046a3.05 3.05 0 103.048-3.05 3.05 3.05 0 00-3.048 3.05zm5.964 0a2.917 2.917 0 11-2.916-2.918 2.917 2.917 0 012.916 2.918zm1.422-3.712l-1.525-1.474-1.289 1.336 1.526 1.474 1.288-1.336zM54.8 41.535l-1.334-1.29 1.104-1.144 1.335 1.29-1.105 1.145zm1.464 5.595l-1.525 1.473-1.197-1.24 1.43-1.382.096-.092 1.196 1.24zm-1.292-1.149l.188.003-.096.093-.092-.096zm-1.242 1.385l1.334-1.29 1.013 1.05-1.335 1.29-1.012-1.05z" fill="#29313C"/><path fill-rule="evenodd" clip-rule="evenodd" d="M56.988 44.96v-2.12h-1.723v2.122h1.723zm-1.59-1.989h1.457v1.857h-1.457v-1.857zm-9.278 2.545l.93 1.907 1.68-.82-.928-1.908-1.681.821zm1.62-.643l.814 1.668-1.443.705-.813-1.669 1.442-.704zM26.506 7.825v2.122h1.87V7.825h-1.87zm1.738.133v1.856h-1.605V7.958h1.605zm-1.738-3.847v2.122h1.87V4.111h-1.87zm1.738.133v1.857h-1.605V4.244h1.605zm21.752 44.938l2.1.295.221-1.576-2.1-.295-.221 1.576zm2.171-1.168l-.184 1.313-1.837-.258.184-1.313 1.837.258zM5.699 49.072h-3.18v2.255h3.18v-2.255zM2.65 51.194v-1.99h2.915v1.99H2.651zM41.482 7.692v5.969h2.253V7.692h-2.253zm2.12 5.836h-1.987V7.825h1.987v5.703zM5.699 2.52h-3.18v2.255h3.18V2.52zM2.65 4.642v-1.99h2.915v1.99H2.651zm20.94 44.43H16.7v2.255h6.891v-2.255zm-6.759 2.122v-1.99h6.627v1.99H16.83zM22.663 2.52h-5.964v2.255h5.964V2.52zM16.83 4.642v-1.99h5.7v1.99h-5.7zm-1.589 36.34H7.289v10.345h7.952V40.982zm-7.82 10.212v-10.08h7.687v10.08H7.422z" fill="#29313C"/><path fill-rule="evenodd" clip-rule="evenodd" d="M10.867 48.94H7.82v1.989h3.048v-1.99zm-.132 1.856H7.952v-1.724h2.783v1.724zm3.843-1.856H11.53v1.989h3.048v-1.99zm-2.915 1.856v-1.724h2.783v1.724h-2.783zm3.578-9.814H7.289v7.294h7.952v-7.294zm-7.82 7.162v-7.03h7.687v7.03H7.422z" fill="#29313C"/><path fill-rule="evenodd" clip-rule="evenodd" d="M15.241 40.982H7.289v5.968h7.952v-5.968zm-7.82 5.835v-5.703h7.687v5.703H7.422zm7.82-33.952H7.289V2.52h7.952v10.345zM7.421 2.653v10.08h7.687V2.652H7.422z" fill="#29313C"/><path fill-rule="evenodd" clip-rule="evenodd" d="M10.867 4.907H7.82v-1.99h3.048v1.99zM7.952 3.05v1.725h2.783V3.05H7.952zm6.626 1.857H11.53v-1.99h3.048v1.99zM11.663 3.05v1.725h2.783V3.05h-2.783zm3.578 9.815H7.289V5.57h7.952v7.295zm-7.82-7.162v7.03h7.687v-7.03H7.422z" fill="#29313C"/><path fill-rule="evenodd" clip-rule="evenodd" d="M15.241 12.865H7.289V6.897h7.952v5.968zm-7.82-5.836v5.703h7.687V7.03H7.422zm25.977 11.804V14.59h10.337v4.244H33.398zm10.204-4.111H33.53V18.7h10.072v-3.98z" fill="#29313C"/><path fill-rule="evenodd" clip-rule="evenodd" d="M41.35 18.17v-3.05h1.987v3.05H41.35zm1.855-2.918h-1.723v2.785h1.723v-2.785zm-9.807 3.581V14.59h7.289v4.244h-7.29zm7.156-4.111H33.53V18.7h7.024v-3.98z" fill="#29313C"/><path fill-rule="evenodd" clip-rule="evenodd" d="M33.398 18.833V14.59h5.963v4.244h-5.963zm5.83-4.111H33.53V18.7h5.699v-3.98zm-5.83-7.958V2.52h10.337v4.244H33.398zm10.204-4.111H33.53V6.63h10.072V2.653z" fill="#29313C"/><path fill-rule="evenodd" clip-rule="evenodd" d="M41.35 6.1V3.05h1.987V6.1H41.35zm1.855-2.917h-1.723v2.785h1.723V3.183zm-9.807 3.581V2.52h7.289v4.244h-7.29zm7.156-4.111H33.53V6.63h7.024V2.653z" fill="#29313C"/><path fill-rule="evenodd" clip-rule="evenodd" d="M33.398 6.764V2.52h5.963v4.244h-5.963zm5.83-4.111H33.53V6.63h5.699V2.653zM26.639 2.52h-3.314v8.62h3.314V2.52zm-3.181 8.488V2.653h3.048v8.355h-3.048zM7.884 34.475h-2.12v1.871h2.12v-1.871zm-.133 1.739H5.896v-1.606H7.75v1.606z" fill="#29313C"/><path fill-rule="evenodd" clip-rule="evenodd" d="M11.072 34.615v-3.316H2.457v3.316h8.615zm-8.482-.133v-3.05h8.35v3.05H2.59zm61.422-6.1H51.687v3.183h12.325v-3.183zm-12.193 3.05v-2.917h12.06v2.918H51.82z" fill="#29313C"/></svg>