<svg width="8" height="8" fill="none" xmlns="http://www.w3.org/2000/svg"><path fill-rule="evenodd" clip-rule="evenodd" d="M4 5.222L1.377 7.845c-.255.255-.735.188-1.073-.15-.337-.337-.404-.817-.149-1.072L2.778 4 .155 1.377C-.1 1.122-.033.642.305.304.641-.033 1.121-.1 1.376.155L4 2.778 6.623.155c.255-.255.735-.188 1.073.15.337.337.404.817.149 1.072L5.222 4l2.623 2.623c.255.255.188.735-.15 1.073-.337.337-.817.404-1.072.149L4 5.222z" fill="red"/><path fill-rule="evenodd" clip-rule="evenodd" d="M4 5.222L1.377 7.845c-.255.255-.735.188-1.073-.15-.337-.337-.404-.817-.149-1.072L2.778 4 .155 1.377C-.1 1.122-.033.642.305.304.641-.033 1.121-.1 1.376.155L4 2.778 6.623.155c.255-.255.735-.188 1.073.15.337.337.404.817.149 1.072L5.222 4l2.623 2.623c.255.255.188.735-.15 1.073-.337.337-.817.404-1.072.149L4 5.222z" fill="#0B1739"/></svg>